<svg width="20" height="19" viewBox="0 0 20 19" fill="none" xmlns="http://www.w3.org/2000/svg">
<path d="M10.0003 6.08398C14.6027 6.08398 18.3337 4.9647 18.3337 3.58398C18.3337 2.20327 14.6027 1.08398 10.0003 1.08398C5.39795 1.08398 1.66699 2.20327 1.66699 3.58398C1.66699 4.9647 5.39795 6.08398 10.0003 6.08398Z" stroke="#4880EC" stroke-width="1.66667" stroke-linecap="round" stroke-linejoin="round"/>
<path d="M4.48783 5.45898C2.75866 5.91732 1.66699 6.58732 1.66699 7.33398C1.66699 8.71482 5.39783 9.83398 10.0003 9.83398C14.6028 9.83398 18.3337 8.71482 18.3337 7.33398C18.3337 6.58732 17.2424 5.91732 15.5128 5.45898C14.0437 5.84773 12.1137 6.08398 10.0003 6.08398C7.88699 6.08398 5.95741 5.84773 4.48783 5.45898Z" stroke="#4880EC" stroke-width="1.66667" stroke-linecap="round" stroke-linejoin="round"/>
<path d="M4.48783 9.20898C2.75866 9.66732 1.66699 10.3373 1.66699 11.084C1.66699 12.4648 5.39783 13.584 10.0003 13.584C14.6028 13.584 18.3337 12.4648 18.3337 11.084C18.3337 10.3373 17.2424 9.66732 15.5128 9.20898C14.0437 9.59773 12.1137 9.83398 10.0003 9.83398C7.88699 9.83398 5.95741 9.59773 4.48783 9.20898Z" stroke="#4880EC" stroke-width="1.66667" stroke-linecap="round" stroke-linejoin="round"/>
<path d="M4.48783 12.959C2.75866 13.4173 1.66699 14.0873 1.66699 14.834C1.66699 16.2148 5.39783 17.334 10.0003 17.334C14.6028 17.334 18.3337 16.2148 18.3337 14.834C18.3337 14.0873 17.2424 13.4173 15.5128 12.959C14.0437 13.3482 12.1137 13.584 10.0003 13.584C7.88699 13.584 5.95741 13.3482 4.48783 12.959Z" stroke="#4880EC" stroke-width="1.66667" stroke-linecap="round" stroke-linejoin="round"/>
</svg>
