<svg width="21" height="20" viewBox="0 0 21 20" fill="none" xmlns="http://www.w3.org/2000/svg">
<path d="M16.073 3.42178C16.2705 3.52066 16.4207 3.6939 16.4906 3.90344C16.5604 4.11298 16.5442 4.34168 16.4455 4.53928L15.4672 6.49762C16.5689 7.26495 17.4687 8.28737 18.0897 9.47768C18.7108 10.668 19.0347 11.9909 19.0339 13.3335V14.1668C19.0339 14.6088 18.8583 15.0327 18.5457 15.3453C18.2331 15.6579 17.8092 15.8335 17.3672 15.8335H4.03386C3.59183 15.8335 3.16791 15.6579 2.85535 15.3453C2.54278 15.0327 2.36719 14.6088 2.36719 14.1668V13.3335C2.36615 11.9907 2.68998 10.6676 3.31105 9.47717C3.93212 8.28669 4.83198 7.26414 5.93386 6.49678L4.95552 4.53928C4.86471 4.34269 4.85399 4.11847 4.92564 3.91411C4.99728 3.70975 5.14567 3.54131 5.33936 3.44446C5.53305 3.34762 5.75684 3.32997 5.96332 3.39527C6.16979 3.46057 6.34274 3.60368 6.44552 3.79428L7.39052 5.68345C8.43536 5.23123 9.56202 4.99863 10.7005 5.00012C11.8764 5.00012 12.9964 5.24345 14.0105 5.68345L14.9555 3.79428C15.0544 3.59677 15.2276 3.4466 15.4372 3.37675C15.6467 3.3069 15.8754 3.3231 16.073 3.42178ZM10.7005 6.66678C8.93241 6.66678 7.23672 7.36916 5.98648 8.61941C4.73624 9.86965 4.03386 11.5653 4.03386 13.3335V14.1668H17.3672V13.3335C17.3672 11.5653 16.6648 9.86965 15.4146 8.61941C14.1643 7.36916 12.4686 6.66678 10.7005 6.66678ZM7.78386 10.0001C8.11538 10.0001 8.43332 10.1318 8.66774 10.3662C8.90216 10.6007 9.03386 10.9186 9.03386 11.2501C9.03386 11.5816 8.90216 11.8996 8.66774 12.134C8.43332 12.3684 8.11538 12.5001 7.78386 12.5001C7.45234 12.5001 7.13439 12.3684 6.89997 12.134C6.66555 11.8996 6.53386 11.5816 6.53386 11.2501C6.53386 10.9186 6.66555 10.6007 6.89997 10.3662C7.13439 10.1318 7.45234 10.0001 7.78386 10.0001ZM13.6172 10.0001C13.9487 10.0001 14.2667 10.1318 14.5011 10.3662C14.7355 10.6007 14.8672 10.9186 14.8672 11.2501C14.8672 11.5816 14.7355 11.8996 14.5011 12.134C14.2667 12.3684 13.9487 12.5001 13.6172 12.5001C13.2857 12.5001 12.9677 12.3684 12.7333 12.134C12.4989 11.8996 12.3672 11.5816 12.3672 11.2501C12.3672 10.9186 12.4989 10.6007 12.7333 10.3662C12.9677 10.1318 13.2857 10.0001 13.6172 10.0001Z" fill="#E2E8FF" fill-opacity="0.54902"/>
</svg>
