<svg width="21" height="20" viewBox="0 0 21 20" fill="none" xmlns="http://www.w3.org/2000/svg">
<path d="M5.89976 7.59551L3.01382 10.0002L5.89976 12.4049C5.99547 12.4833 6.0747 12.5799 6.13289 12.6891C6.19108 12.7984 6.22708 12.918 6.2388 13.0412C6.25052 13.1644 6.23774 13.2887 6.20119 13.4069C6.16464 13.5251 6.10505 13.6349 6.02585 13.73C5.94665 13.8251 5.84941 13.9036 5.73974 13.9609C5.63007 14.0182 5.51014 14.0532 5.38686 14.064C5.26358 14.0747 5.1394 14.0609 5.02147 14.0234C4.90354 13.9859 4.7942 13.9255 4.69976 13.8455L0.949758 10.7205C0.844142 10.6325 0.759165 10.5224 0.700849 10.3979C0.642533 10.2734 0.612305 10.1377 0.612305 10.0002C0.612305 9.86274 0.642533 9.72696 0.700849 9.60248C0.759165 9.478 0.844142 9.36787 0.949758 9.27989L4.69976 6.15489C4.89106 5.99811 5.13658 5.92328 5.38281 5.94671C5.62904 5.97014 5.85603 6.08993 6.01434 6.27998C6.17264 6.47003 6.24943 6.71493 6.22796 6.96134C6.2065 7.20775 6.08853 7.4357 5.89976 7.59551ZM19.6498 9.27989L15.8998 6.15489C15.8053 6.07493 15.696 6.01446 15.578 5.97697C15.4601 5.93948 15.3359 5.9257 15.2127 5.93644C15.0894 5.94718 14.9694 5.98222 14.8598 6.03953C14.7501 6.09685 14.6529 6.17531 14.5737 6.27039C14.4945 6.36547 14.4349 6.47529 14.3983 6.59351C14.3618 6.71173 14.349 6.83602 14.3607 6.95921C14.3724 7.0824 14.4084 7.20205 14.4666 7.31126C14.5248 7.42047 14.604 7.51708 14.6998 7.59551L17.5857 10.0002L14.6998 12.4049C14.604 12.4833 14.5248 12.5799 14.4666 12.6891C14.4084 12.7984 14.3724 12.918 14.3607 13.0412C14.349 13.1644 14.3618 13.2887 14.3983 13.4069C14.4349 13.5251 14.4945 13.6349 14.5737 13.73C14.6529 13.8251 14.7501 13.9036 14.8598 13.9609C14.9694 14.0182 15.0894 14.0532 15.2127 14.064C15.3359 14.0747 15.4601 14.0609 15.578 14.0234C15.696 13.9859 15.8053 13.9255 15.8998 13.8455L19.6498 10.7205C19.7554 10.6325 19.8404 10.5224 19.8987 10.3979C19.957 10.2734 19.9872 10.1377 19.9872 10.0002C19.9872 9.86274 19.957 9.72696 19.8987 9.60248C19.8404 9.478 19.7554 9.36787 19.6498 9.27989ZM13.1201 2.24395C13.0043 2.20187 12.8815 2.18299 12.7584 2.18841C12.6354 2.19382 12.5147 2.22342 12.4031 2.27551C12.2915 2.3276 12.1913 2.40116 12.1081 2.49199C12.025 2.58283 11.9606 2.68915 11.9185 2.80489L6.91851 16.5549C6.83375 16.7885 6.84523 17.0462 6.95042 17.2714C7.0556 17.4966 7.24588 17.6707 7.47945 17.7557C7.58199 17.7935 7.69045 17.8128 7.79976 17.8127C7.99224 17.8127 8.18007 17.7535 8.33773 17.6431C8.49539 17.5327 8.61524 17.3764 8.68101 17.1955L13.681 3.44551C13.7231 3.32979 13.742 3.20691 13.7366 3.08388C13.7311 2.96086 13.7015 2.84011 13.6494 2.72853C13.5974 2.61695 13.5238 2.51673 13.433 2.43358C13.3421 2.35043 13.2358 2.286 13.1201 2.24395Z" fill="#E2E8FF" fill-opacity="0.54902"/>
</svg>
