<svg width="21" height="20" viewBox="0 0 21 20" fill="none" xmlns="http://www.w3.org/2000/svg">
<path d="M10.5995 17.084L10.237 16.724C8.9495 15.4515 8.0995 14.6123 8.0995 13.5823C8.08988 13.3933 8.11796 13.2042 8.18212 13.0262C8.24627 12.8481 8.34521 12.6846 8.47318 12.5452C8.60115 12.4057 8.75559 12.2931 8.9275 12.214C9.09941 12.1348 9.28535 12.0906 9.4745 12.084C9.69277 12.088 9.9073 12.1413 10.1021 12.2399C10.2969 12.3384 10.4669 12.4797 10.5995 12.6532C10.7321 12.4797 10.9021 12.3384 11.0969 12.2399C11.2917 12.1413 11.5062 12.088 11.7245 12.084C11.9137 12.0906 12.0996 12.1348 12.2715 12.214C12.4434 12.2931 12.5979 12.4057 12.7258 12.5452C12.8538 12.6846 12.9527 12.8481 13.0169 13.0262C13.081 13.2042 13.1091 13.3933 13.0995 13.5823C13.0995 14.6123 12.2495 15.4515 10.962 16.7273L10.5995 17.084ZM9.76617 3.33398H11.4328V4.16732H9.76617V3.33398Z" fill="#E2E8FF" fill-opacity="0.54902"/>
<path d="M8.09993 4.16667C8.56017 4.16667 8.93327 3.79357 8.93327 3.33333C8.93327 2.8731 8.56017 2.5 8.09993 2.5C7.6397 2.5 7.2666 2.8731 7.2666 3.33333C7.2666 3.79357 7.6397 4.16667 8.09993 4.16667Z" fill="#E2E8FF" fill-opacity="0.54902"/>
<path d="M13.0999 4.16667C13.5602 4.16667 13.9333 3.79357 13.9333 3.33333C13.9333 2.8731 13.5602 2.5 13.0999 2.5C12.6397 2.5 12.2666 2.8731 12.2666 3.33333C12.2666 3.79357 12.6397 4.16667 13.0999 4.16667Z" fill="#E2E8FF" fill-opacity="0.54902"/>
<path d="M15.5996 8.33333H11.4329V6.66667L13.9329 6.66C14.595 6.66044 15.2301 6.39811 15.6988 5.93061C16.1676 5.46312 16.4316 4.82869 16.4329 4.16667V2.5C16.4321 1.83723 16.1684 1.20186 15.6997 0.733207C15.2311 0.264557 14.5957 0.000881931 13.9329 0H7.26628C6.60351 0.000881931 5.96813 0.264557 5.49948 0.733207C5.03083 1.20186 4.76716 1.83723 4.76628 2.5V4.16667C4.76716 4.82944 5.03083 5.46481 5.49948 5.93346C5.96813 6.40211 6.60351 6.66578 7.26628 6.66667H9.76628V8.33333H5.59961C4.93691 8.33443 4.30166 8.59818 3.83306 9.06678C3.36446 9.53539 3.10071 10.1706 3.09961 10.8333V17.5C3.10049 18.1628 3.36417 18.7981 3.83282 19.2668C4.30147 19.7354 4.93684 19.9991 5.59961 20H15.5996C16.2624 19.9991 16.8978 19.7354 17.3664 19.2668C17.8351 18.7981 18.0987 18.1628 18.0996 17.5V10.8333C18.0985 10.1706 17.8348 9.53539 17.3662 9.06678C16.8976 8.59818 16.2623 8.33443 15.5996 8.33333ZM7.26628 5C7.04533 4.99978 6.8335 4.91191 6.67726 4.75568C6.52103 4.59945 6.43316 4.38761 6.43294 4.16667V2.5C6.43316 2.27905 6.52103 2.06722 6.67726 1.91099C6.8335 1.75476 7.04533 1.66689 7.26628 1.66667L13.9263 1.66833C14.1478 1.66789 14.3604 1.7551 14.5178 1.91093C14.6752 2.06675 14.7645 2.27853 14.7663 2.5V4.16667C14.7645 4.38829 14.6752 4.60024 14.5179 4.75633C14.3606 4.91242 14.1479 5.00001 13.9263 5H7.26628ZM16.4329 17.5C16.4327 17.7209 16.3449 17.9328 16.1886 18.089C16.0324 18.2452 15.8206 18.3331 15.5996 18.3333H5.59961C5.37866 18.3331 5.16683 18.2452 5.0106 18.089C4.85436 17.9328 4.7665 17.7209 4.76628 17.5V10.8333C4.76672 10.6125 4.85466 10.4007 5.01084 10.2446C5.16703 10.0884 5.37873 10.0004 5.59961 10H15.5996C15.8206 10.0002 16.0324 10.0881 16.1886 10.2443C16.3449 10.4006 16.4327 10.6124 16.4329 10.8333V17.5Z" fill="#E2E8FF" fill-opacity="0.54902"/>
</svg>
