<svg width="20" height="20" viewBox="0 0 20 20" fill="none" xmlns="http://www.w3.org/2000/svg">
<path d="M15.6253 5.00001C15.8716 5.00001 16.1154 5.04851 16.3429 5.14273C16.5704 5.23696 16.7771 5.37507 16.9512 5.54918C17.1253 5.72329 17.2634 5.92999 17.3576 6.15748C17.4518 6.38496 17.5003 6.62878 17.5003 6.87501C17.5003 7.12124 17.4518 7.36505 17.3576 7.59254C17.2634 7.82002 17.1253 8.02672 16.9512 8.20083C16.7771 8.37494 16.5704 8.51305 16.3429 8.60728C16.1154 8.70151 15.8716 8.75001 15.6253 8.75001C15.1281 8.75001 14.6511 8.55246 14.2995 8.20083C13.9479 7.8492 13.7503 7.37229 13.7503 6.87501C13.7503 6.37773 13.9479 5.90081 14.2995 5.54918C14.6511 5.19755 15.1281 5.00001 15.6253 5.00001ZM12.5628 7.50001C12.7177 8.25878 13.1488 8.93302 13.7726 9.39201C14.3963 9.85099 15.1683 10.062 15.9388 9.98418C16.7093 9.90635 17.4234 9.54519 17.9428 8.97073C18.4622 8.39627 18.7497 7.64943 18.7497 6.87501C18.7497 6.10058 18.4622 5.35375 17.9428 4.77929C17.4234 4.20483 16.7093 3.84367 15.9388 3.76583C15.1683 3.688 14.3963 3.89903 13.7726 4.35801C13.1488 4.81699 12.7177 5.49123 12.5628 6.25001H11.8753C11.2123 6.25001 10.5764 6.5134 10.1076 6.98224C9.63873 7.45108 9.37534 8.08697 9.37534 8.75001V11.25C9.37534 11.5815 9.24364 11.8995 9.00922 12.1339C8.7748 12.3683 8.45686 12.5 8.12534 12.5H7.43784C7.28295 11.7412 6.85185 11.067 6.2281 10.608C5.60434 10.149 4.83239 9.938 4.06189 10.0158C3.29138 10.0937 2.57723 10.4548 2.05788 11.0293C1.53853 11.6037 1.25098 12.3506 1.25098 13.125C1.25098 13.8994 1.53853 14.6463 2.05788 15.2207C2.57723 15.7952 3.29138 16.1563 4.06189 16.2342C4.83239 16.312 5.60434 16.101 6.2281 15.642C6.85185 15.183 7.28295 14.5088 7.43784 13.75H8.12534C8.78838 13.75 9.42426 13.4866 9.89311 13.0178C10.3619 12.5489 10.6253 11.913 10.6253 11.25V8.75001C10.6253 8.41849 10.757 8.10054 10.9915 7.86612C11.2259 7.6317 11.5438 7.50001 11.8753 7.50001H12.5628ZM6.25034 13.125C6.25034 13.3712 6.20184 13.6151 6.10761 13.8425C6.01339 14.07 5.87527 14.2767 5.70116 14.4508C5.52705 14.6249 5.32036 14.7631 5.09287 14.8573C4.86538 14.9515 4.62157 15 4.37534 15C4.12911 15 3.88529 14.9515 3.65781 14.8573C3.43032 14.7631 3.22362 14.6249 3.04951 14.4508C2.8754 14.2767 2.73729 14.07 2.64306 13.8425C2.54884 13.6151 2.50034 13.3712 2.50034 13.125C2.50034 12.6277 2.69788 12.1508 3.04951 11.7992C3.40114 11.4476 3.87806 11.25 4.37534 11.25C4.87262 11.25 5.34953 11.4476 5.70116 11.7992C6.05279 12.1508 6.25034 12.6277 6.25034 13.125Z" fill="#E2E8FF" fill-opacity="0.54902"/>
</svg>
