<svg width="21" height="20" viewBox="0 0 21 20" fill="none" xmlns="http://www.w3.org/2000/svg">
<path d="M17.984 3.33398H3.81738C3.12703 3.33398 2.56738 3.89363 2.56738 4.58398V15.4173C2.56738 16.1077 3.12703 16.6673 3.81738 16.6673H17.984C18.6744 16.6673 19.234 16.1077 19.234 15.4173V4.58398C19.234 3.89363 18.6744 3.33398 17.984 3.33398Z" stroke="#E2E8FF" stroke-opacity="0.54902" stroke-width="1.66667" stroke-linejoin="round"/>
<path d="M2.56738 4.58398C2.56738 4.25246 2.69908 3.93452 2.9335 3.7001C3.16792 3.46568 3.48586 3.33398 3.81738 3.33398H17.984C18.3156 3.33398 18.6335 3.46568 18.8679 3.7001C19.1024 3.93452 19.234 4.25246 19.234 4.58398V8.33398H2.56738V4.58398Z" stroke="#E2E8FF" stroke-opacity="0.54902" stroke-width="1.66667"/>
<path d="M4.23372 5.83464C4.23372 5.3744 4.60682 5.0013 5.06706 5.0013C5.52729 5.0013 5.90039 5.3744 5.90039 5.83464C5.90039 6.29487 5.52729 6.66797 5.06706 6.66797C4.60682 6.66797 4.23372 6.29487 4.23372 5.83464Z" fill="#E2E8FF" fill-opacity="0.54902"/>
<path d="M6.73372 5.83464C6.73372 5.3744 7.10682 5.0013 7.56706 5.0013C8.02729 5.0013 8.40039 5.3744 8.40039 5.83464C8.40039 6.29487 8.02729 6.66797 7.56706 6.66797C7.10682 6.66797 6.73372 6.29487 6.73372 5.83464Z" fill="#E2E8FF" fill-opacity="0.54902"/>
</svg>
